# xmcd CD database file
# 
# Track frame offsets:
# 	150
# 	15402
# 	31427
# 	46660
# 	59860
# 	72345
# 	83437
# 	102307
# 	120085
# 	133575
# 
# Disc length: 2013 seconds
# 
# Submitted via: Nero 5.5.10.9
# 
# Revision: 0
# Processed by: cddbd v1.4PL0 Copyright (c) Steve Scherf et al.
#
DISCID=7807db0a
DTITLE=David Lee Murphy - Out With A Bang
DYEAR=1900
DGENRE=
TTITLE0=Can't Turn It Off
TTITLE1=Party Crowd
TTITLE2=Mama 'N Them
TTITLE3=High Weeds And Rust
TTITLE4=Fish Ain't Bitin'
TTITLE5=Out With A Bang
TTITLE6=Greatest Show On Earth
TTITLE7=Dust On The Bottle
TTITLE8=Just Once
TTITLE9=Why Can't People Just Get Along
EXTD=
EXTT0=
EXTT1=
EXTT2=
EXTT3=
EXTT4=
EXTT5=
EXTT6=
EXTT7=
EXTT8=
EXTT9=
PLAYORDER=
